<svg width="57" height="131" viewBox="0 0 57 131" fill="none" xmlns="http://www.w3.org/2000/svg">
    <path fill-rule="evenodd" clip-rule="evenodd" d="M28.5 73.4577C24.5664 73.4577 20.8648 74.1999 17.395 75.6843C13.9253 77.1686 10.9009 79.2004 8.32178 81.7795C5.74266 84.3586 3.71094 87.383 2.22656 90.8527C0.74218 94.3225 0 98.0241 0 101.958C0 105.891 0.74218 109.593 2.22656 113.063C3.71094 116.532 5.74266 119.557 8.32178 122.136C10.9009 124.715 13.9253 126.747 17.395 128.231C20.8648 129.716 24.5664 130.458 28.5 130.458C32.4336 130.458 36.1352 129.716 39.605 128.231C43.0747 126.747 46.0991 124.715 48.6782 122.136C51.2573 119.557 53.2891 116.532 54.7734 113.063C56.2578 109.593 57 105.891 57 101.958C57 98.0241 56.2578 94.3225 54.7734 90.8527C53.2891 87.383 51.2573 84.3586 48.6782 81.7795C46.0991 79.2004 43.0747 77.1686 39.605 75.6843C36.1352 74.1999 32.4336 73.4577 28.5 73.4577ZM28.5 128.458C24.7634 128.458 21.2578 127.768 17.9833 126.387C14.7087 125.007 11.846 123.114 9.39509 120.709C6.94418 118.303 5.01563 115.494 3.60938 112.28C2.20312 109.066 1.5 105.625 1.5 101.958C1.5 98.2903 2.20312 94.8496 3.60938 91.6357C5.01563 88.4218 6.94418 85.6121 9.39509 83.2066C11.846 80.8011 14.7087 78.9082 17.9833 77.528C21.2578 76.1478 24.7634 75.4577 28.5 75.4577C32.2366 75.4577 35.7422 76.1478 39.0167 77.528C42.2913 78.9082 45.154 80.8011 47.6049 83.2066C50.0558 85.6121 51.9844 88.4218 53.3906 91.6357C54.7969 94.8496 55.5 98.2903 55.5 101.958C55.5 105.625 54.7969 109.066 53.3906 112.28C51.9844 115.494 50.0558 118.303 47.6049 120.709C45.154 123.114 42.2913 125.007 39.0167 126.387C35.7422 127.768 32.2366 128.458 28.5 128.458ZM33.742 100.968L29.5228 105.423V1.98027C29.5228 1.68772 29.4216 1.43456 29.2192 1.22078C29.0167 1.00699 28.777 0.900101 28.5 0.900101C28.223 0.900101 27.9833 1.00699 27.7808 1.22078C27.5784 1.43456 27.4772 1.68772 27.4772 1.98027V105.423L23.258 100.968C23.0662 100.743 22.8265 100.63 22.5388 100.63C22.2511 100.63 22.0114 100.743 21.8196 100.968C21.6065 101.17 21.5 101.423 21.5 101.727C21.5 102.031 21.6065 102.284 21.8196 102.487L27.605 108.596C27.7329 108.731 27.8767 108.821 28.0365 108.866C28.1963 108.911 28.3508 108.911 28.5 108.866C28.6492 108.911 28.8037 108.911 28.9635 108.866C29.1233 108.821 29.2671 108.731 29.395 108.596L35.1804 102.487C35.3935 102.284 35.5 102.031 35.5 101.727C35.5 101.423 35.3935 101.17 35.1804 100.968C34.9886 100.743 34.7489 100.63 34.4612 100.63C34.1735 100.63 33.9338 100.743 33.742 100.968Z" fill="#423786"/>
    </svg>