<svg width="24" height="25" viewBox="0 0 24 25" fill="none" xmlns="http://www.w3.org/2000/svg">
    <g clip-path="url(#clip0_116_4)">
    <path fill-rule="evenodd" clip-rule="evenodd" d="M12 0C5.37 0 0 5.5848 0 12.48C0 18.0024 3.435 22.6668 8.205 24.3204C8.805 24.4296 9.03 24.0552 9.03 23.7276C9.03 23.4312 9.015 22.4484 9.015 21.4032C6 21.9804 5.22 20.6388 4.98 19.9368C4.845 19.578 4.26 18.4704 3.75 18.174C3.33 17.94 2.73 17.3628 3.735 17.3472C4.68 17.3316 5.355 18.252 5.58 18.6264C6.66 20.514 8.385 19.9836 9.075 19.656C9.18 18.8448 9.495 18.2988 9.84 17.9868C7.17 17.6748 4.38 16.5984 4.38 11.8248C4.38 10.4676 4.845 9.3444 5.61 8.4708C5.49 8.1588 5.07 6.8796 5.73 5.1636C5.73 5.1636 6.735 4.836 9.03 6.4428C9.99 6.162 11.01 6.0216 12.03 6.0216C13.05 6.0216 14.07 6.162 15.03 6.4428C17.325 4.8204 18.33 5.1636 18.33 5.1636C18.99 6.8796 18.57 8.1588 18.45 8.4708C19.215 9.3444 19.68 10.452 19.68 11.8248C19.68 16.614 16.875 17.6748 14.205 17.9868C14.64 18.3768 15.015 19.1256 15.015 20.2956C15.015 21.9648 15 23.3064 15 23.7276C15 24.0552 15.225 24.4452 15.825 24.3204C18.2072 23.4839 20.2772 21.8917 21.7437 19.7677C23.2101 17.6437 23.9993 15.0949 24 12.48C24 5.5848 18.63 0 12 0Z" fill="#E5E5E5"/>
    </g>
    <defs>
    <clipPath id="clip0_116_4">
    <rect width="24" height="24.96" fill="white"/>
    </clipPath>
    </defs>
    </svg>