<svg width="24" height="25" viewBox="0 0 24 25" fill="none" xmlns="http://www.w3.org/2000/svg">
    <path fill-rule="evenodd" clip-rule="evenodd" d="M1 2.95156C1 2.4446 1.19365 1.95839 1.53834 1.59991C1.88303 1.24143 2.35053 1.04004 2.838 1.04004H21.16C21.4016 1.03963 21.6409 1.08878 21.8641 1.18467C22.0874 1.28056 22.2903 1.42132 22.4612 1.59887C22.6322 1.77643 22.7677 1.9873 22.8602 2.21941C22.9526 2.45153 23.0001 2.70032 23 2.95156V22.0064C23.0003 22.2577 22.9529 22.5066 22.8606 22.7388C22.7683 22.9711 22.6328 23.1821 22.462 23.3598C22.2912 23.5375 22.0884 23.6785 21.8651 23.7746C21.6419 23.8708 21.4026 23.9202 21.161 23.92H2.838C2.59655 23.92 2.35746 23.8706 2.1344 23.7744C1.91134 23.6783 1.70867 23.5374 1.53798 23.3598C1.3673 23.1822 1.23193 22.9713 1.13962 22.7393C1.04731 22.5073 0.999869 22.2586 1 22.0075V2.95156ZM9.708 9.76356H12.687V11.3194C13.117 10.425 14.217 9.62004 15.87 9.62004C19.039 9.62004 19.79 11.4016 19.79 14.6703V20.7252H16.583V15.4149C16.583 13.5533 16.153 12.5029 15.061 12.5029C13.546 12.5029 12.916 13.6355 12.916 15.4149V20.7252H9.708V9.76356ZM4.208 20.5827H7.416V9.62004H4.208V20.5816V20.5827ZM7.875 6.04452C7.88105 6.33018 7.83217 6.61422 7.73124 6.87997C7.63031 7.14572 7.47935 7.38782 7.28723 7.59207C7.09511 7.79633 6.8657 7.95861 6.61246 8.06941C6.35921 8.1802 6.08724 8.23728 5.8125 8.23728C5.53776 8.23728 5.26579 8.1802 5.01255 8.06941C4.7593 7.95861 4.52989 7.79633 4.33777 7.59207C4.14565 7.38782 3.99469 7.14572 3.89376 6.87997C3.79283 6.61422 3.74395 6.33018 3.75 6.04452C3.76187 5.48381 3.98439 4.95022 4.36989 4.55803C4.75539 4.16585 5.27322 3.94624 5.8125 3.94624C6.35178 3.94624 6.86961 4.16585 7.25512 4.55803C7.64062 4.95022 7.86313 5.48381 7.875 6.04452Z" fill="#E5E5E5"/>
    </svg>